<svg width="17" height="18" viewBox="0 0 17 18" fill="none" xmlns="http://www.w3.org/2000/svg">
<path fill-rule="evenodd" clip-rule="evenodd" d="M8.50018 0.347839C9.25056 0.347839 9.85887 0.981196 9.85887 1.76248V7.42078H15.2935C16.0439 7.42078 16.6522 8.05414 16.6522 8.83543C16.6522 9.61671 16.0439 10.2501 15.2935 10.2501H9.85887L9.85887 15.9089C9.85887 16.6902 9.25056 17.3235 8.50018 17.3235C7.74979 17.3235 7.14148 16.6902 7.14148 15.9089L7.14148 10.2501L1.70653 10.2501C0.956148 10.2501 0.347839 9.61671 0.347839 8.83543C0.347839 8.05414 0.956148 7.42078 1.70653 7.42078L7.14148 7.42078V1.76248C7.14148 0.981196 7.74979 0.347839 8.50018 0.347839Z"/>
</svg>
