<svg width="36" height="35" viewBox="0 0 36 35" xmlns="http://www.w3.org/2000/svg">
<path d="M29.6666 7.29167H25.0437L23.2354 5.32292C22.6958 4.725 21.9083 4.375 21.0916 4.375H14.9083C14.0916 4.375 13.3041 4.725 12.75 5.32292L10.9562 7.29167H6.33329C4.72913 7.29167 3.41663 8.60417 3.41663 10.2083V27.7083C3.41663 29.3125 4.72913 30.625 6.33329 30.625H29.6666C31.2708 30.625 32.5833 29.3125 32.5833 27.7083V10.2083C32.5833 8.60417 31.2708 7.29167 29.6666 7.29167ZM18 26.25C13.975 26.25 10.7083 22.9833 10.7083 18.9583C10.7083 14.9333 13.975 11.6667 18 11.6667C22.025 11.6667 25.2916 14.9333 25.2916 18.9583C25.2916 22.9833 22.025 26.25 18 26.25ZM18 13.125L16.177 17.1354L12.1666 18.9583L16.177 20.7813L18 24.7917L19.8229 20.7813L23.8333 18.9583L19.8229 17.1354L18 13.125Z"/>
</svg>
