<svg width="13" height="14" viewBox="0 0 13 14" fill="none" xmlns="http://www.w3.org/2000/svg">
<path fill-rule="evenodd" clip-rule="evenodd" d="M0.498216 0.833754C1.02882 0.303151 1.90681 0.320863 2.45926 0.873315L6.46029 4.87434L10.3031 1.03148C10.8337 0.50088 11.7117 0.518591 12.2642 1.07104C12.8166 1.6235 12.8344 2.50149 12.3037 3.03209L8.46089 6.87495L12.4623 10.8763C13.0147 11.4288 13.0325 12.3068 12.5018 12.8374C11.9712 13.368 11.0933 13.3503 10.5408 12.7978L6.53941 8.79643L2.69632 12.6395C2.16571 13.1701 1.28772 13.1524 0.735273 12.6C0.182821 12.0475 0.165109 11.1695 0.695712 10.6389L4.5388 6.79583L0.537776 2.7948C-0.0146763 2.24235 -0.0323879 1.36436 0.498216 0.833754Z" fill="#37FF3F"/>
</svg>
