<svg width="23" height="22" viewBox="0 0 23 22" fill="none" xmlns="http://www.w3.org/2000/svg">
<path d="M22.9733 11C22.9733 17.0751 18.0044 22 11.8751 22C5.7457 22 0.776855 17.0751 0.776855 11C0.776855 4.92487 5.7457 0 11.8751 0C18.0044 0 22.9733 4.92487 22.9733 11Z" fill="#CBD0D5"/>
<path fill-rule="evenodd" clip-rule="evenodd" d="M18.2317 8.04539C18.6522 8.48741 18.6315 9.18359 18.1855 9.60035L11.123 16.2003C10.6955 16.5999 10.0279 16.5999 9.60032 16.2003L5.56461 12.4289C5.11864 12.0122 5.09799 11.316 5.51847 10.874C5.93895 10.4319 6.64135 10.4115 7.08731 10.8282L10.3617 13.8882L16.6628 7.99965C17.1088 7.58289 17.8112 7.60337 18.2317 8.04539Z" fill="white"/>
</svg>
