<svg width="15" height="15" viewBox="0 0 15 15" fill="none" xmlns="http://www.w3.org/2000/svg">
<path d="M7.5007 0C5.46381 0 5.20818 0.00890639 4.40817 0.0453126C3.60973 0.0818751 3.06472 0.208281 2.58784 0.39375C2.09455 0.585313 1.67611 0.841563 1.25923 1.25859C0.84204 1.67547 0.585787 2.09391 0.393598 2.58703C0.207658 3.06406 0.0810945 3.60922 0.0451567 4.40734C0.00937503 5.20734 0 5.46312 0 7.5C0 9.53687 0.00906274 9.79172 0.0453131 10.5917C0.0820322 11.3902 0.20844 11.9352 0.393754 12.412C0.585475 12.9053 0.841727 13.3238 1.25876 13.7406C1.67549 14.1578 2.09393 14.4147 2.5869 14.6063C3.06409 14.7917 3.60926 14.9181 4.40755 14.9547C5.20755 14.9911 5.46303 15 7.49977 15C9.53682 15 9.79167 14.9911 10.5917 14.9547C11.3901 14.9181 11.9357 14.7917 12.4129 14.6063C12.9061 14.4147 13.3239 14.1578 13.7406 13.7406C14.1578 13.3238 14.4141 12.9053 14.6062 12.4122C14.7906 11.9352 14.9172 11.39 14.9547 10.5919C14.9906 9.79187 15 9.53687 15 7.5C15 5.46312 14.9906 5.2075 14.9547 4.4075C14.9172 3.60906 14.7906 3.06406 14.6062 2.58719C14.4141 2.09391 14.1578 1.67547 13.7406 1.25859C13.3234 0.841406 12.9062 0.585156 12.4125 0.39375C11.9343 0.208281 11.389 0.0818751 10.5906 0.0453126C9.79057 0.00890639 9.53588 0 7.49836 0L7.5007 0ZM6.82788 1.35156C7.02757 1.35125 7.25039 1.35156 7.5007 1.35156C9.50322 1.35156 9.74057 1.35875 10.5314 1.39469C11.2626 1.42813 11.6595 1.55031 11.9239 1.65297C12.2739 1.78891 12.5234 1.95141 12.7858 2.21391C13.0483 2.47641 13.2108 2.72641 13.347 3.07641C13.4497 3.34047 13.572 3.73734 13.6053 4.46859C13.6412 5.25922 13.649 5.49672 13.649 7.49828C13.649 9.49984 13.6412 9.73734 13.6053 10.528C13.5719 11.2592 13.4497 11.6561 13.347 11.9202C13.2111 12.2702 13.0483 12.5194 12.7858 12.7817C12.5233 13.0442 12.274 13.2067 11.9239 13.3427C11.6598 13.4458 11.2626 13.5677 10.5314 13.6011C9.74073 13.637 9.50322 13.6448 7.5007 13.6448C5.49803 13.6448 5.26068 13.637 4.47005 13.6011C3.73879 13.5673 3.34191 13.4452 3.07738 13.3425C2.72737 13.2066 2.47737 13.0441 2.21487 12.7816C1.95236 12.5191 1.78986 12.2697 1.65361 11.9195C1.55095 11.6555 1.42861 11.2586 1.39533 10.5273C1.35939 9.73672 1.3522 9.49922 1.3522 7.49641C1.3522 5.49359 1.35939 5.25734 1.39533 4.46672C1.42876 3.73547 1.55095 3.33859 1.65361 3.07422C1.78955 2.72422 1.95236 2.47422 2.21487 2.21172C2.47737 1.94922 2.72737 1.78672 3.07738 1.65047C3.34175 1.54734 3.73879 1.42547 4.47005 1.39188C5.16193 1.36063 5.43006 1.35125 6.82788 1.34969V1.35156ZM11.5042 2.59687C11.0073 2.59687 10.6042 2.99953 10.6042 3.49656C10.6042 3.99344 11.0073 4.39656 11.5042 4.39656C12.0011 4.39656 12.4042 3.99344 12.4042 3.49656C12.4042 2.99969 12.0011 2.59656 11.5042 2.59656V2.59687ZM7.5007 3.64844C5.37365 3.64844 3.6491 5.37297 3.6491 7.5C3.6491 9.62703 5.37365 11.3508 7.5007 11.3508C9.62776 11.3508 11.3517 9.62703 11.3517 7.5C11.3517 5.37297 9.6276 3.64844 7.50055 3.64844H7.5007ZM7.5007 5C8.88134 5 10.0007 6.11922 10.0007 7.5C10.0007 8.88062 8.88134 10 7.5007 10C6.11991 10 5.00068 8.88062 5.00068 7.5C5.00068 6.11922 6.11991 5 7.5007 5Z" fill="white"/>
</svg>
