<svg width="16" height="15" viewBox="0 0 16 15" fill="none" xmlns="http://www.w3.org/2000/svg">
<path d="M7.99998 1.24463C5.41998 1.24463 3.33331 3.19218 3.33331 5.60018C3.33331 6.68285 3.66665 7.69707 4.27331 8.61174C4.90665 9.56996 5.73998 10.3913 6.37998 11.3495C6.69331 11.8162 6.91998 12.2517 7.15998 12.7557C7.33331 13.098 7.47331 13.6891 7.99998 13.6891C8.52665 13.6891 8.66665 13.098 8.83331 12.7557C9.07998 12.2517 9.29998 11.8162 9.61331 11.3495C10.2533 10.3975 11.0866 9.57618 11.72 8.61174C12.3333 7.69707 12.6666 6.68285 12.6666 5.60018C12.6666 3.19218 10.58 1.24463 7.99998 1.24463ZM7.99998 7.3113C7.07998 7.3113 6.33331 6.61441 6.33331 5.75574C6.33331 4.89707 7.07998 4.20018 7.99998 4.20018C8.91998 4.20018 9.66665 4.89707 9.66665 5.75574C9.66665 6.61441 8.91998 7.3113 7.99998 7.3113Z" fill="#D9D9D9"/>
</svg>
