<svg width="25" height="22" viewBox="0 0 25 22" fill="none" xmlns="http://www.w3.org/2000/svg">
<path fill-rule="evenodd" clip-rule="evenodd" d="M0.578079 6.8949C-0.192693 6.51245 -0.192693 5.89237 0.578079 5.50992L11.1044 0.286837C11.8752 -0.0956149 13.1248 -0.0956149 13.8956 0.286837L24.4219 5.50992C25.1927 5.89237 25.1927 6.51245 24.4219 6.8949C23.6512 7.27735 22.4015 7.27735 21.6307 6.8949L12.5 2.36431L3.36929 6.8949C2.59852 7.27735 1.34885 7.27735 0.578079 6.8949Z" fill="white"/>
<path fill-rule="evenodd" clip-rule="evenodd" d="M0.578079 14.0766C-0.192693 13.6942 -0.192693 13.0741 0.578079 12.6917L11.1044 7.46858C11.8752 7.08612 13.1248 7.08612 13.8956 7.46858L24.4219 12.6917C25.1927 13.0741 25.1927 13.6942 24.4219 14.0766C23.6512 14.4591 22.4015 14.4591 21.6307 14.0766L12.5 9.54605L3.36929 14.0766C2.59852 14.4591 1.34885 14.4591 0.578079 14.0766Z" fill="#EBEBEB"/>
<path fill-rule="evenodd" clip-rule="evenodd" d="M0.578079 21.2584C-0.192693 20.8759 -0.192693 20.2559 0.578079 19.8734L11.1044 14.6503C11.8752 14.2679 13.1248 14.2679 13.8956 14.6503L24.4219 19.8734C25.1927 20.2559 25.1927 20.8759 24.4219 21.2584C23.6512 21.6408 22.4015 21.6408 21.6307 21.2584L12.5 16.7278L3.36929 21.2584C2.59852 21.6408 1.34885 21.6408 0.578079 21.2584Z" fill="#BFBFBF"/>
</svg>
