<svg width="15" height="15" viewBox="0 0 15 15" fill="none" xmlns="http://www.w3.org/2000/svg">
<path d="M12.0187 9.53735L10.4312 9.3561C10.05 9.31235 9.67496 9.4436 9.40621 9.71235L8.25621 10.8624C6.48746 9.96235 5.03746 8.5186 4.13746 6.7436L5.29371 5.58735C5.56246 5.3186 5.69371 4.9436 5.64996 4.56235L5.46871 2.98735C5.39371 2.3561 4.86246 1.8811 4.22496 1.8811L3.14371 1.8811C2.43746 1.8811 1.84996 2.4686 1.89371 3.17485C2.22496 8.51235 6.49371 12.7749 11.825 13.1061C12.5312 13.1499 13.1187 12.5624 13.1187 11.8561V10.7749C13.125 10.1436 12.65 9.61235 12.0187 9.53735Z" fill="white"/>
</svg>
