<svg width="16" height="18" viewBox="0 0 16 18" fill="none" xmlns="http://www.w3.org/2000/svg">
<path d="M13 12.3558C12.3667 12.3558 11.8 12.6049 11.3667 12.9953L5.425 9.5484C5.46667 9.35736 5.5 9.16633 5.5 8.96699C5.5 8.76765 5.46667 8.57662 5.425 8.38558L11.3 4.9719C11.75 5.38719 12.3417 5.64467 13 5.64467C14.3833 5.64467 15.5 4.53169 15.5 3.15293C15.5 1.77417 14.3833 0.661194 13 0.661194C11.6167 0.661194 10.5 1.77417 10.5 3.15293C10.5 3.35227 10.5333 3.5433 10.575 3.73434L4.7 7.14802C4.25 6.73273 3.65833 6.47525 3 6.47525C1.61667 6.47525 0.5 7.58823 0.5 8.96699C0.5 10.3458 1.61667 11.4587 3 11.4587C3.65833 11.4587 4.25 11.2012 4.7 10.786L10.6333 14.2412C10.5917 14.4156 10.5667 14.5983 10.5667 14.781C10.5667 16.1183 11.6583 17.2063 13 17.2063C14.3417 17.2063 15.4333 16.1183 15.4333 14.781C15.4333 13.4438 14.3417 12.3558 13 12.3558ZM13 2.32235C13.4583 2.32235 13.8333 2.69611 13.8333 3.15293C13.8333 3.60975 13.4583 3.98351 13 3.98351C12.5417 3.98351 12.1667 3.60975 12.1667 3.15293C12.1667 2.69611 12.5417 2.32235 13 2.32235ZM3 9.79757C2.54167 9.79757 2.16667 9.42381 2.16667 8.96699C2.16667 8.51017 2.54167 8.13641 3 8.13641C3.45833 8.13641 3.83333 8.51017 3.83333 8.96699C3.83333 9.42381 3.45833 9.79757 3 9.79757ZM13 15.6282C12.5417 15.6282 12.1667 15.2545 12.1667 14.7977C12.1667 14.3408 12.5417 13.9671 13 13.9671C13.4583 13.9671 13.8333 14.3408 13.8333 14.7977C13.8333 15.2545 13.4583 15.6282 13 15.6282Z" fill="#11002B"/>
</svg>
